PathFileType	4	(X/Y/Z)	Patient4_TMGait_0pt5_01_left_17.trc.trc
DataRate	CameraRate	NumFrames	NumMarkers	Units	OrigDataRate	OrigDataStartFrame	OrigNumFrames
74.468085106383	74.468085106383	7	33	mm	74.468085106383	124	       141
Frame#	Time	L.ASIS			Sacral			L.Shoulder			Chest			R.Shoulder			Neck			R.ASIS			R.Thigh.Superior			R.Thigh.Lateral			R.Thigh.Inferior			R.Patella			L.Thigh.Superior			L.Thigh.Lateral			L.Thigh.Inferior			L.Patella			L.Shank.Superior			L.Shank.Lateral			L.Shank.Inferior			R.Shank.Superior			R.Shank.Lateral			R.Shank.Inferior			R.Heel			R.Midfoot.Superior			R.Midfoot.Lateral			R.Toe			L.Heel			L.Midfoot.Lateral			L.Midfoot.Superior			L.Toe			L.Elbow			L.Wrist			R.Elbow			R.Wrist			
		X1	Y1	Z1	X2	Y2	Z2	X3	Y3	Z3	X4	Y4	Z4	X5	Y5	Z5	X6	Y6	Z6	X7	Y7	Z7	X8	Y8	Z8	X9	Y9	Z9	X10	Y10	Z10	X11	Y11	Z11	X12	Y12	Z12	X13	Y13	Z13	X14	Y14	Z14	X15	Y15	Z15	X16	Y16	Z16	X17	Y17	Z17	X18	Y18	Z18	X19	Y19	Z19	X20	Y20	Z20	X21	Y21	Z21	X22	Y22	Z22	X23	Y23	Z23	X24	Y24	Z24	X25	Y25	Z25	X26	Y26	Z26	X27	Y27	Z27	X28	Y28	Z28	X29	Y29	Z29	X30	Y30	Z30	X31	Y31	Z31	X32	Y32	Z32	X33	Y33	Z33	

124	24.341714285714	846.863274878582	952.653396480892	340.566271451320	655.693688480304	1000.085868676381	524.630349235468	784.828738077627	1427.090037268172	321.981606078501	917.103128757771	1358.598619673040	460.560398193018	865.456461104317	1433.096040256781	646.465686289507	811.877050753389	1488.128843865814	470.081451163728	891.690737712274	931.184761318715	612.726619975295	884.523190485388	718.290938476133	585.379919466284	781.881686779324	626.488252510151	652.244294722372	834.763084119022	559.714549373219	568.331598408594	813.740743013158	474.433891625281	572.197098940650	929.470502043561	769.941181536757	371.988158604293	872.530042534325	638.789358443261	306.461774762046	977.150504989754	581.409568402561	364.945651153104	999.466062450748	512.364117812162	365.991608710870	981.993885782229	438.184805561934	357.836373949668	910.362345805210	310.187774597947	310.810446324587	992.288975950306	209.403359498176	369.578096785317	773.680624655562	392.386754149628	580.746581085805	691.439673588962	299.124918193819	644.125767159907	715.493916561044	200.166463745857	579.106014785430	561.739295894044	44.500931025168	550.158432129083	733.304325035565	96.108767551275	586.754846840009	644.141462318157	36.513105823298	625.645080269285	852.515514348889	40.865082199183	617.488729676164	897.076012303631	39.516454452409	410.952674931981	971.594431820716	38.570495909662	331.032141742116	1048.369840268794	108.318943960890	352.430605271236	1179.434674258327	67.524033597004	327.880055930974	653.380937632958	1091.930089348229	242.141870927618	638.221419480845	832.114264340967	255.744470201015	1039.993131132758	1150.709474520725	751.850626770224	1226.041220095942	1270.474346297814	637.567247155675	
125	24.355142857143	848.878121980425	951.244579632527	338.817745854777	656.939998723762	998.926228862689	521.948802347157	784.745351988667	1425.629526714844	318.973546698631	917.178577810786	1357.967493011179	457.825401555959	864.950207323310	1432.538409410048	643.558021438369	811.467400319586	1487.120843489292	466.925159026096	892.824344236589	930.284131702538	611.025056214884	884.977375038067	717.068512871313	584.340960147754	781.331682490729	625.813815257998	650.804012936160	834.102462333526	558.491403577100	567.263354903370	812.364624532436	472.817204804788	570.971825864907	930.894391527418	767.671456115541	370.698771153780	872.742334170115	636.897076497621	306.009076448598	977.424904533933	579.391474676236	364.515096623019	998.474277151095	509.471212165656	366.154846945134	980.314798567036	435.092433837993	358.129937667616	906.832737140093	307.964681380870	311.381057372777	986.858764547669	206.138240231908	370.888370028302	771.097907591695	391.378697532089	579.727299163094	687.760362508879	299.297666821815	643.530512448837	710.341234726926	199.855964861510	578.765226977318	555.062085930014	45.183782761931	550.413049956215	726.784461219005	96.150494447337	586.861248115650	637.512958368852	36.735722883803	625.757328411346	845.924695497098	40.451981426828	617.605631295564	887.955623016814	38.563501077627	411.950125563516	962.560132523797	36.940620918705	331.990406792793	1041.031702149554	104.446220792595	354.519360773931	1171.433889697798	60.725318908570	329.661246954892	654.452917954229	1089.838333862300	239.673547603587	641.271415018980	829.842659140919	253.228027014542	1041.503184102286	1151.048198598910	748.422526162292	1225.486794780416	1272.942774890977	632.924237915269	
126	24.368571428571	850.755135893788	950.169565179268	336.939984364837	658.076317513942	998.025356090753	519.194955644170	784.936431999346	1424.361034780300	315.853271789660	917.425938663542	1357.471739183174	455.056449044997	864.590237845656	1432.217605436425	640.576556135541	811.295711958099	1486.334214151228	463.639676455610	893.848075903660	929.545888571403	609.150377978918	885.558032565065	716.064348195170	583.076670927332	781.094051537265	625.246929650622	649.157090743937	833.875980280567	557.413724320225	565.999142315203	811.502152292076	471.214297896400	569.632682703915	932.099409499722	765.678862891082	369.464157412249	873.074191175664	635.481485438935	305.241811931154	977.533940696157	577.713057927443	364.159317143215	997.424355646480	507.054491718531	366.231994968900	978.682599174054	432.532286350043	358.222589855184	903.708321776373	306.197127361136	311.525740115981	981.844268716088	203.488543778706	371.887441752450	768.905219603070	390.419145726204	578.602734458381	684.362615366928	299.670305786458	642.871433706012	705.408794137915	199.705070643491	578.437975349567	548.441623465357	46.225338900206	550.730613575771	720.411314041966	96.259217906867	587.023212280387	630.944994713346	37.129668307799	625.896958130831	839.385434128468	39.983916324382	617.724491331486	879.655701972847	37.862649942136	412.627044494067	954.354922482160	35.825313215503	332.653011681165	1034.160243966529	101.441419080493	356.271871276717	1164.012141914167	55.422169957818	331.163327392421	656.432225309995	1087.638073520286	236.914589465529	645.296439821480	827.477413863156	250.357779357431	1042.458544392980	1151.018545693630	745.018437219443	1225.241828379509	1274.098982671177	628.524950410380	
127	24.382000000000	852.424776482741	949.503407106413	334.894989457146	659.073410071029	997.449340140056	516.391308508077	785.384537605941	1423.365447358961	312.664919851276	917.838700754367	1357.152039317020	452.267548391313	864.419735725316	1432.179967871933	637.540901004866	811.374572663096	1485.825635620904	460.275199376264	894.715876862704	929.038465213899	607.091051955834	886.201035896197	715.345691378629	581.537913157174	781.167646294369	624.831526032905	647.302912270091	834.094108699253	556.539465999450	564.526701149357	811.200946442673	469.665971110865	568.221344695100	933.126839593014	764.164028497797	368.248723525787	873.576392572514	634.623274034274	304.163123004245	977.525322430621	576.468414048614	363.802120741556	996.366310577919	505.184425507683	366.171870176636	977.122048391172	430.550603326437	358.107517024636	900.967436323449	304.952033470746	311.231232858264	977.188944581749	201.487946299236	372.555096207015	767.139580117565	389.544605214430	577.398083146417	681.267167781911	300.295558721228	642.151366647169	700.737550930396	199.765474631566	578.135663888804	541.905974524241	47.718860749741	551.099717590648	714.229493866003	96.454071334574	587.243733820976	624.451524984471	37.752257673229	626.055512244174	832.891841055245	39.477358402584	617.836973483525	872.132705283324	37.418487282871	413.019505023732	946.918293157167	35.175575430359	333.043459381669	1027.695934071532	99.307418724970	357.625841316212	1157.119064366934	51.625713718602	332.313264679051	659.318588719248	1085.430728204076	233.877173607716	650.306266711248	825.123035243154	247.127988486970	1042.830294413267	1150.637214177967	741.648431883683	1225.337081365258	1273.903977366316	624.394132753440	
128	24.395428571429	853.856314441980	949.276773550026	332.653824247039	659.918193313008	997.234531106424	513.536437134959	786.057296801689	1422.701056430834	309.446418667420	918.395469949912	1357.036237946999	449.470708128370	864.451159056269	1432.447443893091	634.469539680031	811.692257233075	1485.628534797660	456.880501061800	895.396395076240	928.814487901889	604.851498902743	886.863538483178	714.961570091001	579.709760310506	781.553419095058	624.598194813884	645.256216903449	834.778448309214	555.912813376538	562.858114686318	811.519410989334	468.203550081324	566.799795526724	934.024153360760	763.245328465338	366.992751733172	874.222284365976	634.319533356304	302.801888238964	977.402181021600	575.658985956843	363.344861890211	995.284898210970	503.840462897536	365.937077349261	975.590280385789	429.115409191234	357.799844939199	898.500822436595	304.216795585850	310.537883894717	972.765938790373	200.090924553878	372.912190592843	765.848696153233	388.785523377021	576.151115630462	678.503887857774	301.219946710286	641.376380941472	696.374948669907	200.084239253771	577.868395663027	535.491942866945	49.758036857514	551.498654205809	708.284875147051	96.753660280935	587.519668032277	618.048512912375	38.667324079138	626.219129119248	826.432304923524	38.953702590264	617.933975573076	865.242397853861	37.200212050686	413.178565859462	940.096593835914	34.900120886451	333.204935128996	1021.520614248088	97.953892767261	358.573957057784	1150.634537648837	49.185676507322	333.095752724683	663.072906934295	1083.312615552689	230.575449530440	656.314628843437	822.880394196569	243.533608638576	1042.586539582281	1149.928389292717	738.319379918723	1225.770485124882	1272.304412806507	620.559160178973	
129	24.408857142857	855.058485672071	949.473556135650	330.205375499336	660.610574512429	997.383963845389	510.607893758392	786.913605266769	1422.396538740808	306.222907675936	919.061712101813	1357.137529365443	446.675403640837	864.659501512416	1433.015664014529	631.377672964510	812.213734743846	1485.749624842975	453.494092030519	895.874363208355	928.902256723733	602.449305734245	887.536768278305	714.936167704609	577.613540331166	782.262290962678	624.558006912573	643.044330923433	835.967239267653	555.557875221215	561.027131159480	812.527977137994	466.844841078355	565.439229409393	934.825664027562	762.930249788862	365.612622988561	874.887476579219	634.480573958396	301.206448617940	977.110917770510	575.200658628557	362.681180322036	994.103019078884	502.934198766732	365.507708373452	973.988508890645	428.137389901565	357.327428684366	896.143322517541	303.912434441993	309.527963672623	968.419168288765	199.195886011153	373.009938376858	765.094357310863	388.163793025075	574.905625040500	676.117119758742	302.480893401685	640.552734517069	692.376153646797	200.701520454693	577.641947385680	529.245919062653	52.435622408760	551.896243254459	702.621900679030	97.176636712162	587.840246818294	611.754768923982	39.945930534144	626.369216778672	819.990294054168	38.436373322103	618.006649669941	858.792293080479	37.156175386485	413.163414966162	933.694026036125	34.889871922299	333.191902858554	1015.497885252374	97.230013126291	359.155383521550	1144.410385520626	47.843044704255	333.543039461172	667.622248970674	1081.364878204240	227.021150331846	663.338597906403	820.838669419372	239.570844608551	1041.689807273033	1148.920370496420	735.034812327723	1226.498645864631	1269.232313570076	617.049533356035	
130	24.422285714286	856.070769037643	950.037022241601	327.561634046784	661.157231604501	997.869852193578	507.570091913814	787.911502989273	1422.448930245643	303.002879803287	919.794101592499	1357.454797825420	443.888469405916	864.983606360955	1433.856532214621	628.275521249576	812.885921761737	1486.169802199006	450.137308480540	896.148135871548	929.301396245509	599.910306585782	888.252189706709	715.267340476207	575.300619357178	783.323079975972	624.699558050960	640.702738369638	837.718598793032	555.476269373320	559.082094836738	814.308133521494	465.593268612972	564.205871064961	935.537034175411	763.115202019388	364.006800622893	875.366609195923	634.951565448507	299.433775616399	976.551541588192	574.955587631741	361.715961640898	992.702187656987	502.343856210530	364.879627159886	972.185754658483	427.498214177654	356.718197698448	893.708216859178	303.920029838457	308.302094649353	963.995546274138	198.673557625762	372.911760770506	764.954443587556	387.691971139127	573.703869255141	674.170137595270	304.105461355099	639.683721714854	688.804735348016	201.649939663591	577.455133676147	523.224180669695	55.844504792766	552.254046517846	697.281358407130	97.743476787929	588.186702855687	605.592800547245	41.667567788852	626.483548355258	813.545987521443	37.946560118779	618.047316323413	852.582517411450	37.227870987290	413.033623396874	927.511572450633	35.038241334315	333.061022578143	1009.499199435272	96.959542449956	359.439004068509	1138.299569834928	47.290460048927	333.717833435034	672.870956107414	1079.646079901350	223.219901839608	671.397683084532	819.069729143903	235.236702721250	1040.094541512577	1147.641516534757	731.795634343431	1227.430760908215	1264.607327477353	613.896425422928	
